<?xml version="1.0" encoding="UTF-8"?>
<svg id="Layer_2" data-name="Layer 2" xmlns="http://www.w3.org/2000/svg" viewBox="0 0 622.51 231.8">
  <defs>
    <style>
      .cls-1 {
        stroke-width: 1.05px;
      }

      .cls-1, .cls-2 {
        fill: none;
        stroke: #736458;
        stroke-miterlimit: 10;
      }

      .cls-2 {
        stroke-width: 2.25px;
      }

      .cls-3, .cls-4 {
        fill: #736458;
      }

      .cls-4 {
        font-family: Cunia, Cunia;
        font-size: 65.21px;
      }
    </style>
  </defs>
  <g id="Layer_1-2">
    <g>
      <path class="cls-3" d="m129.45,183.09c-1.16,1.18-2.33,2.31-3.45,3.48l-3.4,3.52c-1.14,1.21-2.27,2.43-3.43,3.81,1.82-.22,3.47-.95,4.99-1.83,1.51-.9,2.92-1.99,4.14-3.26,1.22-1.27,2.31-2.66,3.16-4.2.87-1.53,1.52-3.19,1.81-4.98-1.45,1.11-2.62,2.31-3.82,3.45Z"/>
      <path class="cls-3" d="m71.66,186.57c-1.12-1.17-2.29-2.31-3.45-3.48-1.2-1.15-2.37-2.34-3.82-3.45.29,1.78.94,3.45,1.81,4.98.85,1.54,1.94,2.94,3.16,4.2,1.22,1.26,2.62,2.36,4.14,3.26,1.52.88,3.17,1.61,4.99,1.83-1.17-1.38-2.3-2.6-3.43-3.81l-3.4-3.52Z"/>
      <path class="cls-3" d="m91.54,148.82c7.33,7.7,14.58,0,14.58,0-8.29,3.08-14.58,0-14.58,0Z"/>
      <path class="cls-3" d="m63.65,205.89c-2.83,0-5.14,2.31-5.14,5.14s2.31,5.14,5.14,5.14,5.14-2.31,5.14-5.14-2.31-5.14-5.14-5.14Zm0,7.96c-1.55,0-2.82-1.26-2.82-2.82s1.26-2.82,2.82-2.82,2.82,1.26,2.82,2.82-1.26,2.82-2.82,2.82Zm4.31-2.82h-.67c0-2.01-1.64-3.64-3.65-3.64s-3.65,1.63-3.65,3.64c0,.14.03.27.04.41l-.62.46c-.06-.28-.09-.57-.09-.86,0-2.38,1.93-4.31,4.31-4.31s4.31,1.94,4.31,4.31h0Z"/>
      <path class="cls-3" d="m65.92,59.51c-4.82,5.62-13.07,8.07-13.07,8.07l5.16,14.86c15.94-9.68,32.17-10.35,32.17-10.35l-2.05-13.91c-10.03,5.35-22.21,1.34-22.21,1.34Z"/>
      <path class="cls-3" d="m143.46,67.58s-3.59-3-6.11-6.72c0,0-4.15.28-7.49,0l-2.14,15.51s7.72,2.57,11.77,6.69l3.97-15.47Z"/>
      <path class="cls-3" d="m113.41,71.95s7.36.93,9.63,2l2.41-13.1s-5.38-.59-11.05-3.84l-.99,14.94Z"/>
      <path class="cls-3" d="m31.68,195.24c1.2-1.16,23.94-8.43,25.95-8.47,0,0,3.88,4.1,11.64,6.24,0,0-7.94-7.76-8.85-10.03,0,0,5.3-11.48,6.39-16.85l-6.39,13.51-41.05,12.57s8.56,12.84,20.33,17.52c0,0-9.23-13.33-8.03-14.49Z"/>
      <path class="cls-3" d="m143.46,183.25s-1.96,8.15-4.37,11.03c0,0,10.32-8,12.25-9.25,0,0-5.56,13.73-11.45,18.28,0,0,11.08-6.52,20.07-12.31,0,0-4.82,15.25-12.98,20.87,0,0,15.78-3.34,29.43-20.87l-38.02-11.37s-4.12,7.85-6.66,10.88c0,0,6.18-3.08,11.73-7.27Z"/>
      <path class="cls-3" d="m134.95,175.35l-3.21-10.03s-3.08,3.88-7.36,6.69-3.46,10.88-1.95,14.76c0,0,5.83-4.33,12.52-11.41Z"/>
      <path class="cls-3" d="m88.67,194.27c2.06-6.23-3.21-14.82-7.89-17.32-4.68-2.5-9.33-6.96-9.33-6.96l-3.65,9.63c8.2,9.1,20.87,14.64,20.87,14.64Z"/>
      <path class="cls-3" d="m52.86,91.87l-1.99-7.76c-14.95-7.31-15.17-20.21-15.17-20.21,20.15-1.41,20.02-13.7,20.02-13.7-4.95,4.69-10.56,4.59-10.56,4.59,8.2-4.82,6.63-14.28,6.63-14.28,0,0-6.99,3.94-8.24-1.86-1.25-5.8,4.73-9.72,4.73-9.72,0,0-21.31,3.39-24.52,25.15-3.21,21.76,21.58,30.5,21.58,30.5-8.3-.12-16.41-6.48-16.41-6.48,13.02,14.39,23.94,13.78,23.94,13.78Z"/>
      <path class="cls-3" d="m87.95,44.91s5-7.04,2.22-7.16c-5.25-.24-11.85,14.32-22.55,14.27,0,0,10.88,1.89,16.77-.98,5.89-2.87,11.24-12.4,11.24-12.4,0,0-3.92,5.14-7.67,6.27Z"/>
      <path class="cls-3" d="m97.76,20.11c20.24,2.66-.53,6.85-4.82,4.89,0,0,1.87,3.92,14.54,4.64,0,0,10.61-12.11,21.49-15.34-.29.09-1.66-.92-1.92-1.06-1.73-.91-3.5-1.75-5.29-2.53-5.39-2.35-11.06-4.19-16.89-5.05-10.49-1.55-22.83,1.24-31.34,7.8-3.13,2.42-5.72,5.6-6.85,9.44-1.32,4.5-.46,9.26,1.29,13.51,0,0,6.81-19.32,29.79-16.3Z"/>
      <path class="cls-3" d="m130.4,53.71c19.44,1.78,19.42-16.06,16.05-17.3-8.23-3.03-19.62,20.51-38.97,5.35,0,0,3.48,10.17,22.92,11.95Z"/>
      <path class="cls-3" d="m148.68,20.21c-12.88-.26-16.05,4.71-16.05,4.71,15.7-7.49,30.68,3.39,32.28,13.54,0,2.27.39,4.28-.21,6.54-.48,1.78-1.36,3.44-2.61,4.79-3.21,3.48-7.54,3.81-11.96,4.54-.45.07-.91.15-1.3.38-.39.23-.71.65-.69,1.1.07,1.44,4.59,2.08,5.67,2.26,1.76.28,3.55.3,5.31.03,1.05-.16,4.03-.55,4.72-1.57-6.42,9.5-19.78,4.32-19.78,4.32,4.3,2.15,8.18,4.27,13.18,3.85.19-.02.37-.03.56-.06,5.73-.67,11.07-4.28,13.44-9.58,2.16-4.82,1.96-10.45.67-15.47-2.28-8.83-8.37-16.1-16.89-19.49-19.7-7.85-32.91,3.22-32.91,3.22,14.98-8.54,26.58-3.12,26.58-3.12Z"/>
      <path class="cls-3" d="m149.48,69.34l-3.17,15.32c14.83,2.44,19-10.17,14.31-9.36-4.68.8-9.29-2.68-9.29-2.68,10.11.94,14.64-4.28,14.64-4.28-9.23,3.75-16.5,1-16.5,1Z"/>
      <path class="cls-3" d="m109.51,91.59c-.96.26-2.63.78-3.23,1.67,0,.01,0,.03,0,.05l-.06-.05c-.28.43-.35.63-.49.93-.11.27-.22.54-.31.8-.19.53-.33,1.05-.46,1.57-.26,1.04-.44,2.07-.58,3.1-.28,2.06-.4,4.1-.44,6.14-.03,2.04.02,4.06.13,6.08.11,2.02.29,4.03.49,6.03.07-2.01.16-4.02.32-6.02.06-.76.14-1.51.21-2.26.08-.05.16-.08.26-.15,1.54-1.11,1.68-3.18,3.46-4.05.43-.21,1.73-.35,2.79-.66.55.26,1.12.46,1.7.61.65.15,1.31.26,1.98.27.67.02,1.34-.03,2-.23-1.28-.47-2.5-.76-3.73-1.08-.24-.05-.47-.11-.7-.17.26-.24.38-.54.23-.93-.19-.49-.97-1.56-1.39-1.87-.47-.35-.82-.59-1.43-1.08-.06-.06-.12-.11-.2-.16-.02-.02-.03-.02-.05-.04,0,0,0,0,0,0-.14-.08-.29-.16-.43-.23-.02,0-.03-.02-.05-.02-.53-.44-1.06-.86-1.6-1.27,1.4-.44,2.79-.77,4.21-.9.07,0,.14,0,.22-.01,0,.05-.02.1-.02.15,0,1.97,2.25,3.57,5.02,3.57,2.37,0,4.34-1.17,4.87-2.74.23.06.47.1.7.16,1.15.31,2.32.68,3.45,1.08-.03.02-.06.05-.09.08-.57.5-1.16.97-1.77,1.42-1.21.93-2.49,1.73-3.95,2.37,1.61.08,3.22-.39,4.74-.97.75-.32,1.48-.67,2.2-1.06.72-.4,1.39-.8,2.09-1.31l1.46-1.07-1.68-1.02c-1.8-1.09-3.62-1.87-5.56-2.51-.99-.32-2-.58-3.02-.78.45-.65,1-1.55,1.25-2.41,5.2.47,9.22,1.63,9.22,1.63l2.68-5.03c-13.33-3.47-20.44-.38-23.82,2.26-.19.05-.39.08-.58.13Z"/>
      <path class="cls-3" d="m84.05,105.38c1.29-.33,2.55-.89,3.53-1.85-1.35.19-2.55.52-3.79.81-1.23.32-2.45.61-3.73,1.08.66.2,1.33.25,2,.23.67-.01,1.33-.12,1.98-.27Z"/>
      <path class="cls-3" d="m107.99,88.03c.56-.38,1.14-.72,1.77-1.1-1.48-.11-2.92.58-4.04,1.47-.56.47-1.07.98-1.5,1.56-.43.58-.81,1.2-1.03,1.91,1.15-.89,2.15-1.8,3.2-2.64.52-.43,1.06-.81,1.61-1.21Z"/>
      <path class="cls-3" d="m90.69,90.35c1.05.84,2.05,1.75,3.2,2.63-.22-.7-.6-1.33-1.03-1.91-.43-.58-.95-1.1-1.5-1.56-1.13-.89-2.56-1.58-4.04-1.47.63.38,1.21.72,1.77,1.1.55.39,1.09.78,1.61,1.21Z"/>
      <path class="cls-3" d="m64.36,112.04c-.81-1.95-1.54-3.91-2.36-5.92-.02,1.09.14,2.17.39,3.23.24,1.06.58,2.09.98,3.09.83,2,1.93,3.91,3.44,5.47-.38-1.02-.83-1.98-1.24-2.96-.42-.97-.83-1.94-1.22-2.92Z"/>
      <path class="cls-3" d="m131.2,114.96c-.41.98-.85,1.94-1.24,2.96,1.51-1.57,2.62-3.47,3.44-5.47.4-1.01.74-2.04.98-3.09.24-1.05.41-2.13.39-3.23-.82,2.01-1.55,3.97-2.36,5.92-.39.98-.8,1.94-1.22,2.92Z"/>
      <path class="cls-3" d="m76.96,149.8c-.64-1-1.31-1.94-1.99-2.87,2.35-3.97,4.85-6.34,7.64-7.59,4.3,5.74,12.08,7.41,16.45,7.41s9.64-1.69,13.65-7.51c.41-.1.81-.19,1.22-.29,3.31,1.12,6.21,3.63,8.92,8.29-.74.63-1.48,1.26-2.21,1.89-1.97,1.74-3.92,3.47-5.8,5.36,1.2-.6,2.31-1.32,3.39-2.09,1.08-.77,2.11-1.6,3.11-2.46,1.98-1.75,3.85-3.64,5.41-5.81-1.09.77-2.1,1.61-3.12,2.45-.19.16-.37.32-.55.47-.31-3.11-2.21-16.18-12.23-18.51-1.52-.35-3.25-.59-4.94-.52.38-.15.77-.3,1.16-.45l1.07-.42.14-.06.21-.1c.14-.07.28-.15.41-.23.27-.14.51-.47.72-.72.33-.62.38-1.27.29-1.75-.04-.25-.09-.49-.17-.7-.07-.22-.14-.43-.25-.61-.21-.41-.45-.79-.7-1.16,1.42,1.02,2.84,2.02,4.18,3.09.9.7,1.76,1.44,2.56,2.24.78.81,1.55,1.66,2.08,2.71-.17-1.18-.77-2.27-1.48-3.22-.71-.97-1.57-1.8-2.48-2.56-.92-.75-1.88-1.44-2.9-2.03-.93-.55-1.89-1.02-2.9-1.41-.43-.48-.89-.93-1.38-1.35.63,1.41,1.28,2.83,1.53,4.19.16.65.05,1.33-.11,1.35-.11,0-.11,0-.43.08l-1.11.23c-1.48.34-3.09.62-4.73,1.66-.8.47-1.55,1.4-1.86,1.66-.2.18-.4.33-.57.41-.08.03-.15.06-.19.07-.02,0-.02,0-.02,0,0,0,0,0,.03,0h.04s.04,0,.04,0l.12.02h-.78l.12-.02h.04s.04,0,.04,0c.02,0,.02,0,.03,0,0,0,0,0-.02,0-.04,0-.11-.04-.19-.07-.16-.08-.36-.23-.57-.41-.3-.26-1.06-1.19-1.86-1.66-1.63-1.03-3.25-1.33-4.73-1.66l-1.11-.23c-.31-.07-.31-.08-.42-.08-.16-.02-.27-.7-.11-1.35.02-.11.06-.23.09-.34.77-1.18,1.31-2.93,2.71-4.08.27-.22.48-.71.63-1.36,0,.07,0,.14,0,.2.01-.14.02-.28.04-.42.22-1.08.32-2.58.35-4.21.03-.47.07-.93.1-1.4.11-2.02.16-4.04.13-6.08-.03-2.04-.16-4.08-.44-6.14-.14-1.03-.32-2.06-.58-3.1-.13-.52-.27-1.04-.46-1.57-.02-.07-.05-.13-.08-.2-.09-.27-.19-.53-.31-.77-.1-.22-.19-.42-.41-.76,0,0-2.68-2.09-6.04-3.22-3.94-2.12-10.7-3.7-21.65-.84l2.68,5.03s5.14-1.49,11.33-1.77c.13.82.58,1.63,1.2,2.23-1.73.2-3.44.56-5.08,1.1-1.94.63-3.76,1.41-5.56,2.51l-1.68,1.02,1.46,1.07c.7.51,1.38.91,2.09,1.31.72.38,1.45.74,2.2,1.06,1.51.58,3.12,1.05,4.74.97-1.46-.64-2.74-1.45-3.95-2.37-.61-.45-1.2-.92-1.77-1.42-.03-.02-.06-.05-.09-.08,1.13-.4,2.3-.77,3.45-1.08.23-.06.47-.11.7-.16.52,1.57,2.5,2.74,4.87,2.74,2.77,0,5.02-1.6,5.02-3.57,0-.05-.01-.1-.02-.15.07,0,.14,0,.22.01,1.43.13,2.82.46,4.21.9-.57.43-1.13.87-1.68,1.33-.09.06-.17.13-.24.19-.03.03-.06.05-.09.08.01,0,.02,0,.04-.01-.3.33-.31.71.22,1.19.77.69,1.84.52,2.59,1.25.12.11.25.25.39.39-.04,1.53-.09,3.13.01,4.5.25,3.48-2.99,11.04-3.23,13.2-.04.34-.04.66-.01.97-.35.19-.7.38-1.04.58-1.09.65-2.11,1.39-3.1,2.19-.98.81-1.91,1.7-2.7,2.71-.79,1-1.49,2.15-1.68,3.42.56-1.14,1.41-2.03,2.27-2.89.88-.85,1.81-1.65,2.78-2.4,1.18-.93,2.4-1.82,3.63-2.71.06.21.13.4.22.56-.07.15-.14.31-.19.48-.08.2-.13.44-.17.7-.1.48-.04,1.13.29,1.75.2.25.45.59.72.73.13.08.27.15.41.23l.21.1.14.06,1.07.42c.35.14.69.27,1.03.4-1.65-.05-3.33.18-4.81.52-9.55,2.22-11.73,14.19-12.18,18-.51-.68-1.02-1.36-1.53-2.04-1.34-1.72-2.67-3.45-4.19-5.09.81,2.09,2.01,3.97,3.34,5.74,1.35,1.75,2.87,3.4,4.69,4.7Zm21.83-17.65h.06s.05,0,.05,0c-.02.06-.04.11-.05.17-.02-.06-.04-.11-.05-.17Zm-9.42,6.01c2.35.09,5.74.63,7.86-.82.24-.16.46-.35.67-.57.44-.47.74-1.02.93-1.61.19.6.49,1.17.94,1.65.2.22.43.41.67.57,2.12,1.45,5.51.91,7.86.82,1.29-.05,2.51.02,3.69.23-.09.67-.22,1.01-.22,1.01-11.62,7.97-23.35,2.72-27.93.04-.13-.56.4-.84.79-.86,1.49-.39,3.07-.53,4.75-.46Z"/>
      <path class="cls-3" d="m56.2,206.3l2.72-4.86s10.58,4.38,27.8,4.86c0,0-28.43-6.96-31.43-8.07l.92,8.07Z"/>
      <path class="cls-3" d="m99.3,162.76c-.63.03-1.26-.05-1.89-.14-.64-.11-1.28-.26-1.96-.46.44.57,1.06.98,1.73,1.26.67.28,1.4.42,2.14.41.73-.03,1.47-.14,2.13-.45.67-.27,1.26-.7,1.74-1.22-.71.14-1.34.32-1.99.42-.64.12-1.27.17-1.89.18Z"/>
      <path class="cls-3" d="m91.54,123.12s-.12,1.2,2.35,1.67c2.47.47,3.36,2.14,4.72,2.27,1.36.13,4.44-2.07,6.78-2.68,2.34-.6,1.85-1.54,1.06-1.87-.79-.33-5.97,2.21-7.73,1.74-1.76-.47-7.84-3.08-7.17-1.14Z"/>
      <path class="cls-3" d="m182.07,187.59l-42.09-12.99c-1.19-3.42-5.84-16.84-6.66-18.63-.77-1.7-3.92-3.3-6.48-4.36,3.69-3.59,6.3-6.8,6.72-8.5.38-1.52,1.73-8.32,3.32-16.53.15-.03.31-.06.47-.11,2.95-.94,5.66-6.15,6.33-7.53,2.55-3.49,13.56-21.32,7.44-26.17-1.1-.88-2.4-1.18-3.77-.9-1.57.33-3.07,1.49-4.37,2.85.4-2.1.66-3.49.73-3.86h0l.74-3.39c2.93.7,6.01.91,9.08.62,3.61-.33,7.29-1.56,10.32-3.91,3.03-2.35,5.18-5.77,6.26-9.36.59-1.79.9-3.63,1.15-5.47.08-.92.12-1.84.17-2.75,0-.71-.01-1.42-.03-2.13,1.17-1.02,2.19-2.21,3.04-3.49.85-1.25,1.5-2.61,2.07-4,.5-1.4.95-2.83,1.2-4.29.94-5.81.38-11.81-1.78-17.25-.99-2.75-2.52-5.26-4.13-7.66l-1.34-1.72-.67-.85-.74-.79-1.49-1.58c-.53-.49-1.08-.96-1.62-1.44-4.36-3.81-9.64-6.5-15.2-7.9-.69-.21-1.4-.33-2.1-.45l-2.12-.37c-.72-.07-1.43-.15-2.15-.19-.72-.01-1.44-.07-2.16-.03-2.42.06-4.81.4-7.14.98-5.72-4.69-12.29-8.46-19.45-10.68-2.17-.79-4.45-1.23-6.7-1.76-2.29-.33-4.57-.78-6.89-.86-2.31-.24-4.63-.1-6.95-.07-2.31.24-4.63.37-6.9.87-2.3.36-4.51,1.09-6.74,1.71-2.17.83-4.37,1.56-6.42,2.66-1.04.51-2.09,1-3.06,1.64-.99.61-1.99,1.18-2.96,1.81-1.93,1.29-3.75,2.78-5.39,4.48-1.63,1.69-3.07,3.6-4.11,5.74-.56,1.13-.98,2.32-1.28,3.53-3.75-.18-7.55.27-11.2,1.26-5.17,1.42-10.06,3.91-14.3,7.25-4.26,3.31-7.83,7.51-10.48,12.25-2.63,4.75-4.22,10.08-4.58,15.55-.06.68-.1,1.37-.05,2.05l.09,2.06c0,.69.16,1.36.25,2.04.11.68.21,1.36.34,2.03.69,2.65,1.53,5.3,2.89,7.67,1.25,2.44,2.93,4.59,4.66,6.65,1.84,1.97,3.78,3.84,5.93,5.43,4.13,3.16,8.7,5.64,13.47,7.51-3.09,6.28,6.31,21.47,8.64,24.66.67,1.37,3.37,6.59,6.33,7.53.16.05.32.09.48.11,1.63,8.21,3.01,15.01,3.39,16.53.42,1.7,3.04,4.91,6.73,8.51-2.56,1.06-5.69,2.66-6.46,4.35-.81,1.79-5.47,15.21-6.66,18.63l-42.12,13.01-3.11.95c.15,1.06.36,2.12.64,3.17,6.04,22.63,42.16,40.08,85.71,40.08s79.69-17.45,85.71-40.09c.29-1.05.5-2.11.64-3.17l-3.11-.96Zm-52.86-31.24c-.11,1.32-.63,4.24-2.86,7.06,2.89-5.65-.37-8.16-2.23-9.26.04-.04.08-.07.12-.11,1.95.74,3.8,1.61,4.97,2.32Zm-6.29,10.18c-.82.54-1.77,1.15-2.8,1.81-8.97,5.76-17.77,11.75-21.29,17.38-3.52-5.62-12.32-11.62-21.29-17.38-1.04-.67-1.99-1.27-2.8-1.81-.18-.12-.34-.25-.52-.37l1.22-6.05c3.76,4.32,14.83,16.15,23.27,16.15,10.33,0,24.76-17.71,24.76-17.71l-.66-3.25c.19-.17.38-.33.57-.5l2.12,9.57c-.72.76-1.56,1.49-2.59,2.17Zm-52.55-4.44c-1.44-2.35-1.82-4.58-1.92-5.71,1.12-.69,2.89-1.53,4.78-2.26-1.71,1-4.65,3.2-2.86,7.97Zm28.46-88.39c-7.13,0-28.17.04-42.74,13.83l-6.22-22.1c2.48-.58,4.9-1.5,7.13-2.83,2.75-1.61,5.18-3.87,6.9-6.55.14-.22.27-.44.4-.66,1.44.75,2.96,1.38,4.52,1.89,3.48,1.15,7.27,1.64,11.03,1.12,1.87-.26,3.73-.75,5.47-1.51,1.73-.78,3.36-1.76,4.8-2.96.69-.58,1.34-1.21,1.94-1.86,3.28-.33,12.14-1.1,17.2-.27v-.09c1.33,1.09,2.77,2.03,4.26,2.79.62.33,1.26.64,1.89.95l1.96.73c.66.24,1.31.49,1.97.71l2,.55c.67.17,1.34.36,2.01.51l2.06.36c1.36.28,2.77.37,4.17.47,2.8.04,5.68-.04,8.42-.98.15-.05.3-.1.45-.15.86,2.42,2.36,4.53,4.28,6.24.95.85,2.01,1.57,3.12,2.19l-4.65,21.25c-14.54-13.63-35.31-13.6-42.37-13.61Zm49.19,21.32c.42-.09.75,0,1.11.27,2.49,1.97-2.63,14.51-8.11,21.86l-.16.27c-.91,1.91-2.16,3.82-3.15,4.95.37-1.92.75-3.88,1.12-5.83h0c.76-.69,1.52-1.45,2.07-2.36.58-.89,1.03-1.87,1.31-2.9.29-1.03.46-2.09.5-3.17.02-.9-.02-1.76-.17-2.69.57-1.07,1.22-2.09,2-2.99.39-.46.84-.84,1.34-1.17.5-.3,1.12-.51,1.71-.28-.53-.36-1.27-.3-1.87-.08-.61.23-1.2.54-1.71.94-.24.17-.44.38-.67.57.05-.26.06-.55.02-.91-.07-.64-.11-1.27-.15-1.91,1.41-2.06,3.29-4.26,4.81-4.58Zm18.95-21.16c-.45,1.57-1.06,3.08-1.89,4.46-.8,1.39-1.79,2.68-3,3.74-2.38,2.19-5.5,3.59-8.81,4.36-1.66.39-3.38.62-5.11.71-1.2.08-2.41.07-3.63.02l4.32-19.73c.53.19,1.05.37,1.59.52,1.41.43,2.85.58,4.29.78.72.06,1.44.06,2.16.09.72.03,1.45.06,2.16-.01,1.44-.09,2.86-.14,4.35-.43,1.46-.32,2.92-.74,4.28-1.43.14-.07.28-.15.42-.22-.14,2.45-.47,4.85-1.14,7.14Zm-139.07,5.73c-1.54-1.98-3.03-4.01-4.09-6.26-1.18-2.19-1.9-4.57-2.48-6.96-.11-.61-.18-1.22-.27-1.83-.07-.61-.22-1.21-.2-1.83,0-1.23-.15-2.46.02-3.7.62-9.94,5.94-19.33,13.65-25.75,6.49-5.44,14.78-8.88,23.39-9.27-.1.61-.17,1.21-.2,1.82-.2,4.72,1.49,9.3,4.29,12.84-2.27-3.88-3.42-8.42-2.84-12.71.54-4.32,2.95-8.11,6.11-11.01,1.59-1.46,3.34-2.75,5.19-3.91.94-.56,1.91-1.07,2.87-1.61.94-.57,1.95-.99,2.95-1.44,1.97-.97,4.06-1.64,6.11-2.38,2.12-.54,4.21-1.19,6.38-1.49,2.14-.48,4.33-.6,6.5-.82,2.19-.04,4.38-.14,6.56.04,2.19.03,4.36.43,6.54.69,2.14.49,4.32.82,6.41,1.49,6.5,1.77,12.61,4.76,18.31,8.49-5.19,1.67-9.9,4.48-13.94,7.97,4.59-3.13,9.63-5.62,14.96-6.79,5.32-1.2,10.84-1.03,15.99.6,5.13,1.58,9.97,4.16,13.88,7.82l1.46,1.36,1.34,1.48.67.74.6.79,1.21,1.59c1.43,2.23,2.8,4.53,3.66,7.04.54,1.21.82,2.51,1.2,3.77.19.63.25,1.3.38,1.94.09.65.28,1.29.29,1.96.07,1.32.24,2.63.13,3.95-.03.66-.04,1.32-.08,1.98-.09.64-.13,1.3-.26,1.94-.19,1.29-.57,2.53-.98,3.75-.47,1.19-1.01,2.36-1.7,3.42-.7,1.05-1.48,2.06-2.42,2.89-.92.86-1.94,1.6-3.07,2.17-1.11.61-2.33.99-3.57,1.31-1.24.28-2.6.38-3.93.53-.67.1-1.34.1-2,.1-.67,0-1.34.03-2,0-1.32-.12-2.65-.2-3.94-.53-2.58-.53-5.05-1.59-7.13-3.21-1.06-.79-1.98-1.76-2.78-2.81-.6-.77-1.13-1.63-1.54-2.51,2.16-.88,4.15-2.16,5.78-3.78,1.97-2.02,3.38-4.48,4.2-7.06-1.46,2.28-3.17,4.34-5.24,5.87-2.06,1.55-4.43,2.54-6.88,3.09-2.46.56-5.04.56-7.58.36-1.28-.16-2.56-.23-3.82-.53l-1.91-.37c-.63-.15-1.26-.35-1.89-.51l-1.9-.49c-.62-.2-1.22-.42-1.83-.63l-1.83-.63-1.74-.8c-1.21-.47-2.25-1.17-3.34-1.81-.57-.3-.98-.76-1.5-1.13l-.27-.2h0s0,0-.01,0l-.47-.36c-.23-.2-.43-.44-.65-.66-3.61-3.43-4.94-8.96-3.57-14.21-1.32,2.38-1.87,5.21-1.64,8.04.21,2.42,1.13,4.82,2.57,6.83-3.81-.17-8.18.07-11.33.33.69-1.13,1.28-2.3,1.75-3.52-2.44,2.64-4.97,5.02-7.79,6.82-1.44.86-2.91,1.6-4.45,2.16-1.54.56-3.14.93-4.77,1.15-3.26.46-6.63.23-9.99-.36-1.44-.27-2.88-.62-4.31-1.01.99-2.11,1.57-4.37,1.69-6.63-1.47,2.71-2.99,5.21-4.92,7.3-1.9,2.12-4.1,3.88-6.53,5.32-2.42,1.45-5.07,2.58-7.83,3.51-2.76.94-5.63,1.68-8.63,2.32,2.83.65,5.77.61,8.66.2l-.84.24,7,24.86c.07.38.32,1.65.69,3.57-1.26-1.28-2.69-2.35-4.18-2.66-1.36-.29-2.66.02-3.77.9-.11.09-.21.19-.31.29-4.65-2.16-9-4.9-12.88-8.14-1.97-1.61-3.71-3.46-5.38-5.34Zm28.84,37.83l-.16-.27c-5.48-7.34-10.6-19.89-8.11-21.86.36-.28.69-.36,1.1-.27,1.35.29,3.09,2.15,4.53,4.17.01,1,.14,1.99-.11,3-.14-.11-.26-.24-.4-.34-.51-.39-1.1-.71-1.71-.94-.6-.21-1.34-.27-1.87.08.59-.22,1.21-.02,1.71.28.5.32.95.71,1.34,1.17.79.9,1.44,1.92,2,2.99-.15.92-.19,1.79-.17,2.69.04,1.07.2,2.14.5,3.17.28,1.03.73,2.02,1.31,2.9.54.89,1.28,1.63,2.02,2.32.38,1.95.77,3.91,1.15,5.83-1-1.14-2.23-3.02-3.13-4.91Zm10.48,24.92c-.29-1.17-1.23-5.75-2.42-11.72.37-3.49,1.66-4.82,2.48-5.3.86,1.24,1.58,2.59,2.23,4.01.8,1.74,1.5,3.54,2.11,5.37-.36-1.9-.8-3.79-1.36-5.66-.55-1.85-1.25-3.75-2.26-5.47-.51-.89-1.04-1.75-1.59-2.59-.11-.18-.23-.36-.36-.53-.4-.61-.81-1.22-1.22-1.83-1.08-1.57-2.18-3.12-3.33-4.66-.59-2.99-1.17-5.93-1.7-8.68.6-3.79,1.35-9.55,1.53-15.78,8.12-5.07,24.87-13.19,47.52-12.17,8.14.82,18.9,3.21,27.72,10.2-.03,4.15-.05,15.46.41,21.6-.32,1.65-.64,3.35-.97,5.06-1.08,1.46-2.13,2.93-3.15,4.42-1.1,1.61-2.18,3.23-3.16,4.95-1.02,1.72-1.71,3.62-2.26,5.47-.56,1.87-1,3.76-1.36,5.66.61-1.83,1.31-3.63,2.11-5.37.67-1.46,1.4-2.84,2.3-4.11.72.36,2.01,1.41,2.54,4.46-1.26,6.44-2.25,11.43-2.56,12.67-.9,3.59-22.55,23.4-31.62,23.4s-30.72-19.81-31.62-23.4Zm-51.04,48.46l44.05-13.6.27-.77c1.22-3.54,3.96-11.43,5.6-15.94.94,2.73,2.88,6.09,6.89,8.73.83.54,1.78,1.16,2.83,1.83,6.95,4.46,21.42,13.75,21.42,19.48v8.84c-24.7-.06-46.3-8.5-46.63-8.63l-2.48-.99,1.05,9.68-6.44-1.18s1.92,13.19,3.59,20.62c-16.13-6.85-27.29-16.78-30.15-28.06Zm65.09,36.82c-13.49-4.55-25.06-11.06-25.06-11.06l.62,6.09c-.66-.2-1.33-.41-1.98-.62l-2.97-27.41c4.45,1.56,14.51,4.75,27.17,6.61,15.03,2.2,36.51,2.79,55.02-6.41l1.09,29.42c-1.18.3-2.38.58-3.59.85l-2.78-23.65s-20.15,4.41-27.47,4.86c0,0,8.43,1.69,19.46,2.59,0,0-11.5,3.57-22.26,3.92l.6,12.84s7.75,1.31,22.74,1.25c-7.32,1.1-15.05,1.69-23.04,1.69-6.03,0-11.9-.35-17.56-.98Zm57.08-4.23l-1.25-33.83-2.28,1.25c-10.75,5.91-22.81,8.19-34.37,8.51v-8.8c0-5.73,14.47-15.02,21.42-19.48,1.05-.67,2.01-1.29,2.84-1.83,4.03-2.65,5.97-6.03,6.9-8.77,1.64,4.51,4.4,12.43,5.62,15.98l.26.77,44.02,13.59c-3.57,14.11-20.12,26.1-43.15,32.6Z"/>
      <path class="cls-3" d="m113.08,186.23c-2.4,0-4.35,2.14-4.35,4.77s1.95,4.77,4.35,4.77,4.35-2.14,4.35-4.77-1.95-4.77-4.35-4.77Zm-3.07,6.02c-.13-.39-.21-.81-.21-1.25,0-2.04,1.47-3.7,3.28-3.7.17,0,.34.03.51.06-1.68.2-2.99,1.75-2.99,3.64,0,.27.03.53.08.78l-.66.47Zm5.97.44c-.46.7-1.2,1.17-2.03,1.17-1.4,0-2.53-1.28-2.53-2.86s1.14-2.86,2.53-2.86c.83,0,1.57.46,2.03,1.17.23.51.38,1.08.38,1.69s-.14,1.18-.38,1.69Z"/>
    </g>
    <text class="cls-4" transform="translate(207.03 160.43) scale(1.17 1)"><tspan x="0" y="0">MR. BAKER</tspan></text>
    <g>
      <g>
        <g>
          <path class="cls-3" d="m172.79,114.92c-.15-.48-.48-.86-.91-1.09-.44-.23-.92-.28-1.4-.13-.48.14-.86.46-1.09.9l-14.02,26.61c-.48.9-.13,2.02.77,2.49.33.17.69.24,1.05.21.13-.01.24-.04.36-.08.46-.14.85-.46,1.08-.9l14.02-26.61c.23-.44.28-.94.14-1.4Zm-1.18.85l-14.02,26.61c-.08.17-.22.28-.39.33-.06.03-.14.03-.21.03-.1,0-.22-.03-.31-.08-.33-.17-.45-.58-.28-.91l14.02-26.6c.09-.17.23-.28.4-.33.04-.01.08-.03.13-.03.13-.01.26.01.39.08.15.08.27.22.32.4.05.17.04.35-.05.5Z"/>
          <path class="cls-3" d="m177.98,117.66c-.15-.48-.46-.86-.9-1.09-.44-.23-.94-.28-1.41-.13-.48.14-.86.46-1.09.9l-14.02,26.61c-.23.44-.27.94-.13,1.4.15.48.46.86.9,1.09.33.18.69.24,1.07.21.12-.01.23-.04.35-.08.46-.14.86-.46,1.08-.9l14.04-26.61c.23-.44.27-.94.13-1.4Zm-1.17.86l-14.04,26.6c-.08.17-.22.28-.39.33-.06.03-.13.03-.21.03-.1,0-.22-.03-.31-.08-.15-.08-.27-.22-.32-.4-.06-.17-.04-.35.04-.5l14.02-26.61c.09-.17.23-.28.4-.33.04-.01.09-.01.13-.03.13-.01.27.01.39.08.15.09.27.22.33.4.05.17.03.35-.05.51Z"/>
          <path class="cls-3" d="m182.27,119.3c-.44-.23-.94-.27-1.41-.13-.46.14-.85.46-1.08.9l-14.02,26.61c-.14.27-.22.57-.22.86,0,.65.36,1.3.99,1.63.32.18.69.24,1.05.21.12-.01.23-.04.35-.08.48-.14.86-.46,1.09-.9l14.02-26.61c.48-.9.13-2.02-.77-2.49Zm-.27,1.95l-14.02,26.6c-.09.17-.23.28-.4.33-.06.03-.14.03-.21.03-.1,0-.21-.03-.31-.08-.32-.17-.45-.58-.28-.9l14.04-26.61c.08-.15.22-.27.39-.33.05-.01.09-.01.13-.03.13-.01.27.01.39.08.33.18.45.58.28.91Z"/>
          <path class="cls-3" d="m187.46,122.04c-.44-.23-.94-.27-1.4-.13-.48.15-.86.48-1.09.9l-14.02,26.61c-.14.27-.22.57-.22.86,0,.65.36,1.3.99,1.63.33.18.69.24,1.05.21.12-.01.23-.04.35-.08.48-.14.86-.46,1.09-.9l14.02-26.61c.48-.9.13-2.02-.77-2.49Zm-.27,1.95l-14.02,26.61c-.09.15-.22.27-.4.32-.06.03-.13.03-.19.03-.1,0-.22-.03-.31-.08-.33-.17-.46-.58-.28-.9l14.02-26.61c.08-.15.22-.27.4-.32.04-.01.08-.03.13-.04.13-.01.26.01.37.08.33.18.46.58.28.91Z"/>
        </g>
        <path class="cls-3" d="m155.1,148.79s1.96,9.69,13.29,5.97c0,0-5.53-1.17-13.29-5.97Z"/>
        <path class="cls-3" d="m171.86,111.25s9.41.58,19.88,10.65c0,0-7.61-10.87-19.88-10.65Z"/>
        <path class="cls-3" d="m182.97,142.44s5.54-8.38,7.69-13.29c0,0-5.82,7.26-7.69,13.29Z"/>
      </g>
      <g>
        <path class="cls-2" d="m41.9,164.76l-13.43,7.58S-2.38,119.46,1.46,102.13c0,0,4.53,1.76,12.11,14.2,7.58,12.44,28.34,48.43,28.34,48.43Z"/>
        <path class="cls-1" d="m3.5,103.52c-.28,5.46,1.54,23.63,27.22,67.66"/>
        <path class="cls-3" d="m6.8,110.54s9.27,14.47,12.68,20.3c3.4,5.83,18.83,31.99,18.83,31.99l-3.8,2.15s-6.94-10.58-11.75-18.72c-4.81-8.13-5.62-11.33-10.31-21.41-4.69-10.08-6.19-12.34-5.64-14.31Z"/>
        <path class="cls-3" d="m42.04,164.12l-.39.22-8.94,5.05.24.42,2.22,3.94s2.84.03,4.44,2.4l7.86-2.43c-3.12-5.51-5.45-9.61-5.45-9.61Z"/>
      </g>
    </g>
    <path class="cls-3" d="m183.68,110.53c-1.28-.67-12.79-6.46-17.8-3.36-5.1,3.13-17.29,29-17.07,44.9v.12s.03.12.03.12c.04.14.72,3.58,2.27,7.86.31,1.22-1.64,5.96-4.82,12.35l2.43.74,3.29,1.01,2.47.76c3.11-5.48,5.59-9.17,6.67-9.58,4.43-1.13,7.65-2.5,7.78-2.57l.21-.1c13.11-8.71,27.41-32.99,27.41-39.26v-.18c-.3-5.89-11.55-12.11-12.86-12.8Zm-30.6,61.88l-3.4-1.12c1.25-2.6,2.13-4.63,2.73-6.2,0,0,0,0,0-.01,1.08,1.61,2.72,2.04,3.93,2.1-.89,1.28-1.96,2.99-3.27,5.23Zm14.75-11.8c-.54.22-3.18,1.31-6.69,2.26-3.2-.53-6.34-2.66-7.69-3.69h0c-1.32-3.64-1.99-6.69-2.12-7.28-.15-15.68,11.79-40.08,15.86-42.6,2.89-1.77,10.94,1.18,15.32,3.44,4.37,2.35,11.34,7.32,11.51,10.7.23,4.79-13.15,28.43-26.19,37.17Z"/>
  </g>
</svg>