<?xml version="1.0" standalone="no"?>
<!DOCTYPE svg PUBLIC "-//W3C//DTD SVG 20010904//EN"
 "http://www.w3.org/TR/2001/REC-SVG-20010904/DTD/svg10.dtd">
<svg version="1.0" xmlns="http://www.w3.org/2000/svg"
 width="512.000000pt" height="512.000000pt" viewBox="0 0 512.000000 512.000000"
 preserveAspectRatio="xMidYMid meet">

<g transform="translate(0.000000,512.000000) scale(0.100000,-0.100000)"
fill="#000000" stroke="none">
<path d="M2081 3364 c-38 -31 -53 -81 -40 -129 8 -29 73 -90 375 -356 l366
-322 -24 -22 c-12 -13 -165 -147 -338 -300 -385 -338 -380 -333 -380 -384 0
-78 42 -121 119 -121 31 0 49 7 78 33 220 189 825 732 833 747 18 33 12 95
-12 128 -26 36 -825 735 -852 745 -40 15 -94 7 -125 -19z"/>
</g>
</svg>
