<?xml version="1.0" standalone="no"?>
<!DOCTYPE svg PUBLIC "-//W3C//DTD SVG 20010904//EN"
 "http://www.w3.org/TR/2001/REC-SVG-20010904/DTD/svg10.dtd">
<svg version="1.0" xmlns="http://www.w3.org/2000/svg"
 width="512.000000pt" height="512.000000pt" viewBox="0 0 512.000000 512.000000"
 preserveAspectRatio="xMidYMid meet">

<g transform="translate(0.000000,512.000000) scale(0.100000,-0.100000)"
fill="#000000" stroke="none">
<path d="M2505 4315 c-34 -33 -32 -73 5 -120 56 -70 52 -146 -11 -222 -67 -82
-84 -126 -84 -223 1 -93 18 -144 74 -210 24 -29 35 -35 71 -35 79 0 105 71 50
140 -56 70 -52 146 11 222 67 82 84 126 84 223 0 69 -5 94 -24 133 -54 110
-123 146 -176 92z"/>
<path d="M3385 4075 c-34 -33 -32 -73 5 -120 56 -70 52 -146 -11 -222 -67 -82
-84 -126 -84 -223 1 -93 18 -144 74 -210 24 -29 35 -35 71 -35 79 0 105 71 50
140 -56 70 -52 146 11 222 67 82 84 126 84 223 0 69 -5 94 -24 133 -54 110
-123 146 -176 92z"/>
<path d="M1625 3995 c-34 -33 -32 -73 5 -120 56 -70 52 -146 -11 -222 -67 -82
-84 -126 -84 -223 1 -93 18 -144 74 -210 24 -29 35 -35 71 -35 79 0 105 71 50
140 -56 70 -52 146 11 222 67 82 84 126 84 223 0 69 -5 94 -24 133 -54 110
-123 146 -176 92z"/>
<path d="M2305 3034 c-548 -45 -1032 -210 -1405 -477 -107 -77 -275 -239 -347
-335 -109 -145 -189 -326 -218 -491 -33 -185 -13 -337 65 -496 99 -202 259
-337 480 -407 l75 -23 1605 0 1605 0 75 23 c265 84 449 268 532 532 20 65 23
94 22 220 -1 166 -24 274 -87 412 -208 453 -746 824 -1409 972 -240 53 -374
68 -668 71 -151 1 -297 1 -325 -1z m543 -170 l54 -6 -83 -50 c-231 -142 -402
-380 -469 -653 -16 -65 -35 -124 -42 -132 -7 -7 -28 -15 -45 -19 -27 -5 -37
-1 -63 24 -16 17 -30 39 -30 49 0 36 49 220 78 289 66 163 173 317 305 439
l81 76 81 -6 c44 -3 104 -8 133 -11z m-480 -11 c-159 -190 -235 -317 -296
-498 -83 -245 -80 -347 13 -440 73 -73 151 -92 248 -59 58 20 132 96 145 150
39 169 57 229 87 293 118 249 352 432 622 486 79 16 83 16 164 -6 l83 -22 -35
-25 c-71 -53 -215 -211 -268 -297 -94 -151 -170 -372 -157 -462 25 -188 239
-275 391 -159 43 33 70 85 95 182 64 251 281 444 536 479 50 6 51 6 135 -56
295 -218 464 -477 500 -767 11 -87 11 -110 -5 -188 -26 -135 -73 -223 -170
-320 -62 -62 -99 -90 -156 -117 -149 -71 -60 -68 -1775 -65 l-1540 3 -80 27
c-268 92 -442 350 -420 626 17 226 113 425 297 617 75 79 248 226 248 211 0
-2 -11 -47 -25 -98 -49 -183 -44 -271 21 -346 99 -117 302 -104 383 23 17 27
34 76 45 131 31 161 109 319 213 435 62 69 179 156 266 199 92 44 240 73 401
78 46 2 48 1 34 -15z m-857 -203 c-99 -119 -169 -264 -207 -430 -26 -114 -43
-140 -96 -140 -31 0 -78 38 -78 64 0 75 60 277 114 385 l35 68 95 42 c96 42
164 69 179 70 4 1 -15 -26 -42 -59z m2224 -6 c47 -20 85 -40 85 -43 0 -4 -25
-18 -55 -30 -162 -67 -316 -213 -398 -377 -24 -48 -58 -146 -71 -206 -14 -63
-80 -87 -130 -47 -33 26 -35 78 -5 175 48 158 143 309 266 424 77 72 192 151
211 145 7 -3 51 -21 97 -41z"/>
<path d="M669 1430 c-26 -15 -41 -62 -30 -93 25 -66 279 -178 468 -206 48 -7
526 -11 1455 -11 1497 0 1475 -1 1635 54 82 28 229 102 255 128 20 20 24 69 8
98 -5 10 -24 23 -42 29 -27 10 -38 8 -77 -14 -88 -49 -177 -87 -251 -108 l-75
-22 -1414 -3 c-1240 -2 -1426 -1 -1504 13 -101 17 -213 59 -298 111 -56 34
-99 42 -130 24z"/>
</g>
</svg>
