<?xml version="1.0" standalone="no"?>
<!DOCTYPE svg PUBLIC "-//W3C//DTD SVG 20010904//EN"
 "http://www.w3.org/TR/2001/REC-SVG-20010904/DTD/svg10.dtd">
<svg version="1.0" xmlns="http://www.w3.org/2000/svg"
 width="512.000000pt" height="512.000000pt" viewBox="0 0 512.000000 512.000000"
 preserveAspectRatio="xMidYMid meet">

<g transform="translate(0.000000,512.000000) scale(0.100000,-0.100000)"
fill="#000000" stroke="none">
<path d="M3416 5106 c-56 -21 -107 -66 -132 -117 -37 -72 -83 -438 -84 -654 0
-105 -17 -151 -80 -222 -22 -25 -51 -69 -64 -97 -34 -73 -96 -390 -96 -494 0
-46 -4 -91 -9 -101 -6 -9 -31 -30 -56 -47 -68 -43 -99 -96 -131 -229 l-28
-114 -58 6 c-31 3 -85 0 -119 -6 -33 -7 -62 -11 -64 -9 -2 2 23 332 56 733 32
402 59 757 59 791 1 173 -104 334 -266 411 -67 32 -87 37 -172 41 -81 3 -108
1 -162 -18 -84 -28 -149 -70 -205 -132 -83 -93 -85 -99 -240 -860 -78 -387
-145 -696 -149 -688 -3 8 -64 211 -135 451 -134 451 -170 553 -251 724 -92
191 -247 428 -319 484 -175 139 -416 126 -571 -29 -113 -113 -135 -203 -127
-514 6 -228 22 -356 67 -536 24 -99 761 -2634 777 -2678 11 -27 -52 -8 -252
77 -104 45 -200 81 -213 81 -13 0 -34 -11 -47 -25 l-25 -24 0 -656 0 -655 80
0 80 0 2 579 3 578 125 -54 c151 -65 219 -83 327 -83 105 0 164 13 288 63 83
34 115 41 187 45 100 5 149 -5 263 -53 107 -45 185 -59 298 -53 92 5 108 10
332 92 123 45 252 34 398 -33 90 -42 175 -61 274 -61 108 0 164 13 310 72 189
76 293 76 466 1 127 -55 182 -72 271 -83 118 -16 210 2 427 84 96 36 178 66
182 66 4 0 7 -261 7 -580 l0 -580 80 0 80 0 0 655 0 656 -25 24 c-13 14 -34
25 -46 25 -13 0 -124 -38 -248 -84 -124 -47 -238 -88 -253 -91 l-27 -7 19 69
c336 1223 757 2770 771 2838 32 143 49 279 55 445 9 222 -16 309 -121 412 -57
57 -123 89 -250 121 -141 36 -175 40 -241 28 -146 -27 -278 -138 -318 -268 -6
-19 -1 -23 46 -37 107 -30 105 -30 112 -2 9 37 72 103 120 128 57 29 130 27
254 -7 120 -33 169 -64 208 -131 23 -40 29 -62 32 -136 5 -104 -12 -299 -38
-447 -11 -59 -199 -761 -418 -1561 l-398 -1455 -38 2 c-20 1 -92 26 -159 54
-157 66 -235 83 -352 75 -49 -3 -107 -11 -127 -17 -21 -7 -41 -10 -44 -7 -3 3
-2 22 1 42 5 26 12 36 26 36 13 0 21 12 29 43 40 155 78 228 162 308 54 52
147 104 205 115 29 5 34 10 30 28 -3 11 -11 47 -17 79 l-12 58 -31 -6 c-90
-19 -215 -90 -293 -167 l-51 -50 -5 84 c-3 45 -5 84 -4 85 1 1 33 -7 71 -18
38 -10 72 -16 76 -11 3 4 23 72 44 152 41 159 75 237 131 305 45 56 137 118
215 146 66 24 67 26 45 119 -15 64 -20 65 -119 25 -94 -38 -165 -86 -237 -161
-89 -94 -135 -188 -185 -376 -22 -81 -40 -146 -41 -145 -1 1 -9 53 -18 115
-20 136 -55 274 -100 393 l-33 88 27 163 c41 238 54 283 145 483 46 100 74
193 105 345 26 126 38 161 90 265 84 169 99 235 110 490 6 116 19 280 31 365
32 238 27 283 -36 358 -57 68 -176 99 -259 68z m130 -169 c32 -28 32 -28 5
-248 -12 -90 -25 -254 -30 -364 -6 -119 -16 -224 -25 -260 -9 -33 -43 -114
-76 -180 -53 -106 -64 -138 -90 -267 -34 -164 -68 -271 -128 -398 -49 -106
-87 -223 -108 -340 l-17 -90 -61 63 c-33 35 -77 75 -96 89 l-35 25 29 118 c20
83 35 124 50 137 12 10 40 35 64 55 69 58 84 98 93 243 8 140 58 396 85 438
10 14 36 49 58 77 75 91 88 136 97 335 10 208 14 256 40 420 17 108 23 128 45
148 32 28 66 28 100 -1z m-3003 -62 c54 -23 93 -60 161 -159 130 -186 236
-402 309 -631 79 -247 859 -2896 854 -2901 -5 -5 -69 16 -217 72 -62 23 -94
29 -190 32 -124 4 -196 -12 -335 -72 -33 -14 -69 -26 -80 -26 -18 0 -59 136
-409 1338 -215 735 -400 1382 -413 1437 -47 209 -70 595 -42 724 34 158 211
249 362 186z m1710 -51 c103 -35 186 -146 194 -259 2 -33 -25 -418 -61 -855
l-64 -795 -52 -55 c-29 -30 -71 -82 -93 -115 -22 -33 -42 -62 -44 -64 -2 -3
-20 12 -41 32 -61 59 -142 91 -237 91 -111 1 -192 -36 -235 -106 l-18 -30 -25
83 c-14 46 -33 109 -42 140 l-16 57 166 823 c91 453 173 846 182 874 21 64
109 155 173 178 59 20 155 21 213 1z m512 -1975 c68 -31 181 -147 233 -237 81
-141 143 -328 178 -537 22 -126 25 -481 6 -600 -22 -133 -53 -259 -68 -275
-12 -12 -41 -15 -132 -15 -107 0 -123 3 -182 28 -176 77 -195 82 -340 82 -136
0 -165 -6 -292 -60 -20 -8 -30 21 -59 185 -86 487 33 1070 270 1323 56 60 120
105 175 123 57 19 150 12 211 -17z m-808 -230 c40 -25 41 -36 6 -50 -63 -24
-186 5 -200 48 -12 36 136 37 194 2z m-85 -217 c40 -2 90 0 111 6 34 9 38 9
33 -5 -15 -37 -57 -218 -72 -308 -12 -70 -18 -161 -18 -307 -1 -113 -2 -206
-2 -205 -3 3 -264 886 -264 891 0 2 31 -12 69 -31 56 -29 84 -37 143 -41z"/>
<path d="M710 4154 c-67 -126 -114 -141 -238 -73 -40 22 -75 39 -76 37 -2 -2
-19 -33 -39 -70 l-37 -67 87 -48 c86 -47 90 -48 173 -48 75 0 91 3 132 28 56
33 85 67 139 164 l40 71 -68 36 c-37 20 -70 36 -73 36 -3 0 -21 -30 -40 -66z"/>
<path d="M861 3605 c-65 -117 -109 -130 -226 -65 -40 22 -75 40 -78 40 -11 0
-78 -133 -70 -140 4 -5 46 -28 92 -51 78 -41 89 -44 160 -44 88 1 134 20 192
82 34 36 109 159 109 179 0 9 -118 75 -132 74 -3 0 -25 -34 -47 -75z"/>
<path d="M1023 3078 c-40 -75 -87 -118 -128 -118 -12 0 -56 18 -98 40 -41 22
-79 40 -84 40 -14 0 -76 -131 -67 -140 5 -4 47 -27 94 -51 76 -39 92 -43 155
-43 76 0 148 29 192 76 21 22 113 176 113 188 0 3 -31 22 -69 43 l-69 37 -39
-72z"/>
<path d="M1202 2578 c-10 -18 -30 -53 -45 -78 -47 -83 -104 -93 -208 -36 -36
20 -71 36 -77 36 -18 0 -81 -128 -68 -139 6 -5 49 -28 95 -51 74 -38 92 -43
150 -43 119 0 196 55 270 193 l40 75 -69 38 -68 37 -20 -32z"/>
<path d="M1336 2001 c-20 -39 -49 -80 -64 -91 -38 -31 -100 -23 -181 24 -72
41 -65 44 -111 -46 l-30 -57 33 -20 c84 -52 162 -81 218 -81 123 0 203 55 273
189 37 72 38 75 20 88 -19 15 -110 63 -117 63 -3 0 -21 -31 -41 -69z"/>
<path d="M2013 4480 c-58 -12 -95 -33 -131 -75 -38 -42 -46 -71 -39 -131 7
-63 48 -111 132 -154 64 -33 74 -35 164 -35 81 0 104 4 144 24 87 42 126 129
97 215 -35 107 -222 187 -367 156z m184 -181 c40 -25 41 -36 6 -50 -63 -24
-186 5 -200 48 -12 36 136 37 194 2z"/>
<path d="M1933 3920 c-58 -12 -95 -33 -131 -75 -38 -42 -46 -71 -39 -131 7
-63 48 -111 132 -154 64 -33 74 -35 164 -35 81 0 104 4 144 24 87 42 126 129
97 215 -35 107 -222 187 -367 156z m184 -181 c40 -25 41 -36 6 -50 -63 -24
-186 5 -200 48 -12 36 136 37 194 2z"/>
<path d="M1853 3360 c-58 -12 -95 -33 -131 -75 -38 -42 -46 -71 -39 -131 7
-63 48 -111 132 -154 64 -33 74 -35 164 -35 81 0 104 4 144 24 87 42 126 129
97 215 -35 107 -222 187 -367 156z m184 -181 c40 -25 41 -36 6 -50 -63 -24
-186 5 -200 48 -12 36 136 37 194 2z"/>
<path d="M2630 2391 c-146 -37 -277 -70 -292 -74 l-26 -7 18 -71 c10 -39 21
-73 24 -76 5 -5 589 137 607 148 6 3 3 35 -8 77 -14 61 -20 72 -37 71 -12 0
-140 -31 -286 -68z"/>
<path d="M2607 1995 c-159 -40 -290 -75 -292 -77 -5 -5 31 -138 39 -146 5 -4
590 138 606 148 5 3 1 37 -9 75 -13 55 -21 70 -37 72 -10 1 -149 -31 -307 -72z"/>
<path d="M2622 1609 c-167 -43 -305 -79 -307 -81 -8 -7 31 -142 42 -145 8 -3
371 84 574 138 l37 9 -20 78 c-11 42 -20 77 -21 77 -1 0 -138 -34 -305 -76z"/>
<path d="M4393 4751 c-97 -35 -158 -75 -244 -161 -107 -106 -143 -176 -199
-387 -22 -84 -40 -158 -40 -166 0 -12 137 -53 147 -43 2 2 22 71 44 152 49
185 85 260 159 334 56 56 182 130 221 130 32 0 33 11 4 138 -6 27 -23 27 -92
3z"/>
<path d="M4230 4061 c-155 -49 -311 -179 -383 -317 -33 -64 -134 -400 -124
-411 10 -9 143 -41 148 -35 3 4 25 76 47 161 23 84 53 176 67 204 56 111 158
199 279 241 l61 22 -14 77 c-8 42 -17 77 -20 76 -3 0 -31 -8 -61 -18z"/>
<path d="M4014 3356 c-98 -36 -154 -73 -239 -160 -102 -103 -141 -180 -195
-381 -22 -82 -40 -157 -40 -166 0 -12 19 -21 70 -34 39 -10 73 -15 76 -13 2 3
22 72 44 154 50 186 85 259 161 335 55 55 182 129 222 129 30 0 30 12 2 138
-7 27 -23 27 -101 -2z"/>
<path d="M960 480 l0 -80 80 0 80 0 0 80 0 80 -80 0 -80 0 0 -80z"/>
<path d="M1280 480 l0 -80 1280 0 1280 0 0 80 0 80 -1280 0 -1280 0 0 -80z"/>
<path d="M4000 480 l0 -80 80 0 80 0 0 80 0 80 -80 0 -80 0 0 -80z"/>
<path d="M1280 160 l0 -80 160 0 160 0 0 80 0 80 -160 0 -160 0 0 -80z"/>
<path d="M1760 160 l0 -80 720 0 720 0 0 80 0 80 -720 0 -720 0 0 -80z"/>
<path d="M3360 160 l0 -80 400 0 400 0 0 80 0 80 -400 0 -400 0 0 -80z"/>
</g>
</svg>
