<svg fill="#efefef" height="200px" width="200px" version="1.1" id="Icons" xmlns="http://www.w3.org/2000/svg"
     xmlns:xlink="http://www.w3.org/1999/xlink" viewBox="-3.2 -3.2 38.40 38.40" xml:space="preserve" stroke="#efefef"><g id="SVGRepo_bgCarrier" stroke-width="0"><rect x="-3.2" y="-3.2" width="38.40" height="38.40" rx="19.2" fill="#f3a446" strokewidth="0"></rect></g>
    <g id="SVGRepo_tracerCarrier" stroke-linecap="round" stroke-linejoin="round"></g>
    <g id="SVGRepo_iconCarrier"> <g> <path
            d="M13,11c0.6,0,1-0.4,1-1s-0.4-1-1-1c-5,0-9,4-9,9c0,2.8,2.2,5,5,5s5-2.2,5-5s-2.2-5-5-5c-0.3,0-0.7,0-1,0.1 C9.3,11.8,11,11,13,11z"></path>
        <path d="M23,13c-0.3,0-0.7,0-1,0.1c1.3-1.3,3-2.1,5-2.1c0.6,0,1-0.4,1-1s-0.4-1-1-1c-5,0-9,4-9,9c0,2.8,2.2,5,5,5s5-2.2,5-5 S25.8,13,23,13z"></path> </g> </g></svg>